<svg width="310" height="310" viewBox="0 0 310 310" fill="none" xmlns="http://www.w3.org/2000/svg">
<path d="M85.9091 60L103.182 88.0682V221.932L84.8295 250H215.083L241.364 215.455H146.364V60H85.9091ZM163.636 60.4386V77.7788C202.44 82.0883 232.727 115.057 232.727 155C232.727 170.969 227.878 185.823 219.587 198.182H239.508C246.167 185.21 250 170.554 250 155C250 105.531 211.983 64.8172 163.636 60.4386ZM84.8127 91.1887C69.4486 108.073 60 130.43 60 155C60 179.501 69.4 201.793 84.6777 218.659L85.9091 216.787V190.456C80.425 179.808 77.2727 167.773 77.2727 155C77.2727 142.227 80.425 130.192 85.9091 119.544V92.9599L84.8127 91.1887Z" fill="white"/>
<circle cx="155" cy="155" r="149" stroke="white" stroke-width="12"/>
</svg>
