<svg width="200" height="200" viewBox="0 0 200 200" fill="none" xmlns="http://www.w3.org/2000/svg">
<path d="M61.8182 30.8232V51.1819V149.818L56 170.5H144.272L155 145.046H93.6364V22L61.8182 30.8232ZM106.364 30.8232V43.6002C134.955 46.7757 157.273 71.0683 157.273 100.5C157.273 112.266 153.7 123.212 147.591 132.318H162.269C167.176 122.76 170 111.961 170 100.5C170 64.0492 141.987 34.0496 106.364 30.8232ZM48.283 53.4813C36.9621 65.9222 30 82.3955 30 100.5C30 118.554 36.9263 134.979 48.1836 147.407L49.0909 146.027V126.626C45.05 118.779 42.7273 109.912 42.7273 100.5C42.7273 91.0883 45.05 82.2207 49.0909 74.3744V54.7863L48.283 53.4813Z" fill="#2588B2"/>
<circle cx="100" cy="100" r="95" stroke="#2588B2" stroke-width="10"/>
</svg>
