<svg width="200" height="200" viewBox="0 0 200 200" fill="none" xmlns="http://www.w3.org/2000/svg">
<path d="M49.0909 27L61.8182 47.6818V146.318L48.2955 167H144.272L163.636 141.545H93.6364V27H49.0909ZM106.364 27.3232V40.1001C134.955 43.2756 157.273 67.5682 157.273 97C157.273 108.766 153.7 119.712 147.591 128.818H162.269C167.176 119.26 170 108.461 170 97C170 60.5491 141.987 30.5495 106.364 27.3232ZM48.283 49.9812C36.9621 62.4221 30 78.8955 30 97C30 115.054 36.9263 131.479 48.1836 143.907L49.0909 142.527V123.126C45.05 115.279 42.7273 106.412 42.7273 97C42.7273 87.5882 45.05 78.7207 49.0909 70.8743V51.2862L48.283 49.9812Z" fill="#2588B2"/>
<circle cx="100" cy="100" r="95" stroke="#2588B2" stroke-width="10"/>
</svg>
