<svg width="1043" height="200" viewBox="0 0 1043 200" fill="none" xmlns="http://www.w3.org/2000/svg">
<path d="M294.27 132.1C283.783 132.1 275.57 129.57 269.63 124.51C263.763 119.377 260.647 111.97 260.28 102.29C260.207 100.31 260.17 97.0833 260.17 92.61C260.17 88.0633 260.207 84.7633 260.28 82.71C260.647 73.1767 263.837 65.8433 269.85 60.71C275.863 55.5033 284.003 52.9 294.27 52.9C300.723 52.9 306.517 54 311.65 56.2C316.783 58.3267 320.817 61.4067 323.75 65.44C326.757 69.4 328.297 74.0567 328.37 79.41V79.63C328.37 80.2167 328.113 80.73 327.6 81.17C327.16 81.5367 326.647 81.72 326.06 81.72H311.21C310.257 81.72 309.523 81.5367 309.01 81.17C308.497 80.73 308.057 79.96 307.69 78.86C306.663 75.12 305.05 72.5167 302.85 71.05C300.65 69.51 297.753 68.74 294.16 68.74C285.507 68.74 281.033 73.58 280.74 83.26C280.667 85.24 280.63 88.2833 280.63 92.39C280.63 96.4967 280.667 99.6133 280.74 101.74C281.033 111.42 285.507 116.26 294.16 116.26C297.753 116.26 300.687 115.49 302.96 113.95C305.233 112.337 306.81 109.733 307.69 106.14C307.983 105.04 308.387 104.307 308.9 103.94C309.413 103.5 310.183 103.28 311.21 103.28H326.06C326.72 103.28 327.27 103.5 327.71 103.94C328.223 104.38 328.443 104.93 328.37 105.59C328.297 110.943 326.757 115.637 323.75 119.67C320.817 123.63 316.783 126.71 311.65 128.91C306.517 131.037 300.723 132.1 294.27 132.1ZM341.476 131C340.743 131 340.083 130.743 339.496 130.23C338.983 129.643 338.726 128.983 338.726 128.25V55.65C338.726 54.8433 338.983 54.1833 339.496 53.67C340.083 53.1567 340.743 52.9 341.476 52.9H355.556C356.363 52.9 357.023 53.1567 357.536 53.67C358.05 54.1833 358.306 54.8433 358.306 55.65V80.18C362.706 75.1933 368.5 72.7 375.686 72.7C379.94 72.7 383.716 73.6533 387.016 75.56C390.39 77.4667 393.03 80.29 394.936 84.03C396.843 87.77 397.796 92.28 397.796 97.56V128.25C397.796 128.983 397.54 129.643 397.026 130.23C396.513 130.743 395.853 131 395.046 131H380.856C380.123 131 379.463 130.743 378.876 130.23C378.363 129.643 378.106 128.983 378.106 128.25V98.22C378.106 94.7733 377.263 92.1333 375.576 90.3C373.963 88.3933 371.58 87.44 368.426 87.44C365.273 87.44 362.78 88.3933 360.946 90.3C359.186 92.1333 358.306 94.7733 358.306 98.22V128.25C358.306 129.057 358.05 129.717 357.536 130.23C357.023 130.743 356.363 131 355.556 131H341.476ZM427.429 132.1C423.543 132.1 419.986 131.367 416.759 129.9C413.606 128.36 411.113 126.307 409.279 123.74C407.519 121.1 406.639 118.203 406.639 115.05C406.639 109.99 408.693 105.92 412.799 102.84C416.979 99.76 422.699 97.6333 429.959 96.46L443.709 94.37V92.83C443.709 90.0433 443.123 87.99 441.949 86.67C440.776 85.35 438.796 84.69 436.009 84.69C434.323 84.69 432.929 84.9833 431.829 85.57C430.729 86.1567 429.593 86.9633 428.419 87.99C427.393 88.87 426.623 89.4567 426.109 89.75C425.889 90.3367 425.486 90.63 424.899 90.63H412.909C412.176 90.63 411.553 90.41 411.039 89.97C410.599 89.4567 410.416 88.87 410.489 88.21C410.563 86.23 411.516 84.03 413.349 81.61C415.256 79.19 418.116 77.1 421.929 75.34C425.816 73.58 430.583 72.7 436.229 72.7C445.249 72.7 451.923 74.7167 456.249 78.75C460.576 82.71 462.739 88.0633 462.739 94.81V128.25C462.739 128.983 462.483 129.643 461.969 130.23C461.456 130.743 460.796 131 459.989 131H447.229C446.496 131 445.836 130.743 445.249 130.23C444.736 129.643 444.479 128.983 444.479 128.25V124.4C442.866 126.673 440.593 128.543 437.659 130.01C434.799 131.403 431.389 132.1 427.429 132.1ZM432.599 119.56C435.973 119.56 438.686 118.46 440.739 116.26C442.866 114.06 443.929 110.833 443.929 106.58V105.04L434.579 106.69C427.979 107.863 424.679 110.173 424.679 113.62C424.679 115.453 425.449 116.92 426.989 118.02C428.529 119.047 430.399 119.56 432.599 119.56ZM477.792 65.55C476.985 65.55 476.325 65.2933 475.812 64.78C475.299 64.2667 475.042 63.6067 475.042 62.8V52.9C475.042 52.0933 475.299 51.4333 475.812 50.92C476.325 50.4067 476.985 50.15 477.792 50.15H490.992C491.799 50.15 492.459 50.4067 492.972 50.92C493.485 51.4333 493.742 52.0933 493.742 52.9V62.8C493.742 63.6067 493.485 64.2667 492.972 64.78C492.459 65.2933 491.799 65.55 490.992 65.55H477.792ZM477.902 131C477.095 131 476.435 130.743 475.922 130.23C475.409 129.717 475.152 129.057 475.152 128.25V76.55C475.152 75.7433 475.409 75.0833 475.922 74.57C476.435 74.0567 477.095 73.8 477.902 73.8H490.882C491.689 73.8 492.349 74.0567 492.862 74.57C493.375 75.0833 493.632 75.7433 493.632 76.55V128.25C493.632 128.983 493.375 129.643 492.862 130.23C492.349 130.743 491.689 131 490.882 131H477.902ZM509.377 131C508.57 131 507.91 130.743 507.397 130.23C506.883 129.717 506.627 129.057 506.627 128.25V76.55C506.627 75.7433 506.883 75.0833 507.397 74.57C507.91 74.0567 508.57 73.8 509.377 73.8H522.027C522.833 73.8 523.493 74.0567 524.007 74.57C524.593 75.0833 524.887 75.7433 524.887 76.55V80.73C526.867 78.31 529.397 76.3667 532.477 74.9C535.63 73.4333 539.187 72.7 543.147 72.7C549.6 72.7 554.843 74.9 558.877 79.3C562.91 83.6267 564.927 89.7133 564.927 97.56V128.25C564.927 128.983 564.67 129.643 564.157 130.23C563.643 130.743 562.983 131 562.177 131H548.317C547.583 131 546.923 130.743 546.337 130.23C545.823 129.643 545.567 128.983 545.567 128.25V98.22C545.567 94.7733 544.723 92.1333 543.037 90.3C541.35 88.3933 538.93 87.44 535.777 87.44C532.697 87.44 530.277 88.3933 528.517 90.3C526.757 92.1333 525.877 94.7733 525.877 98.22V128.25C525.877 128.983 525.62 129.643 525.107 130.23C524.593 130.743 523.933 131 523.127 131H509.377ZM604.688 131C603.955 131 603.295 130.743 602.708 130.23C602.195 129.643 601.938 128.983 601.938 128.25V56.75C601.938 55.9433 602.195 55.2833 602.708 54.77C603.295 54.2567 603.955 54 604.688 54H619.208C620.015 54 620.675 54.2567 621.188 54.77C621.702 55.2833 621.958 55.9433 621.958 56.75V114.39H655.288C656.095 114.39 656.755 114.683 657.268 115.27C657.782 115.783 658.038 116.443 658.038 117.25V128.25C658.038 128.983 657.782 129.643 657.268 130.23C656.755 130.743 656.095 131 655.288 131H604.688ZM692.226 132.1C683.426 132.1 676.496 129.717 671.436 124.95C666.376 120.183 663.736 113.253 663.516 104.16V100.31C663.809 91.6567 666.486 84.91 671.546 80.07C676.679 75.1567 683.536 72.7 692.116 72.7C698.349 72.7 703.593 73.9833 707.846 76.55C712.173 79.0433 715.399 82.49 717.526 86.89C719.726 91.29 720.826 96.35 720.826 102.07V104.71C720.826 105.443 720.569 106.103 720.056 106.69C719.543 107.203 718.883 107.46 718.076 107.46H682.876V108.23C683.023 111.677 683.866 114.463 685.406 116.59C686.946 118.717 689.183 119.78 692.116 119.78C693.949 119.78 695.453 119.413 696.626 118.68C697.799 117.873 698.863 116.92 699.816 115.82C700.476 115.013 700.989 114.537 701.356 114.39C701.796 114.17 702.456 114.06 703.336 114.06H716.976C717.636 114.06 718.186 114.28 718.626 114.72C719.139 115.087 719.396 115.6 719.396 116.26C719.396 118.167 718.296 120.367 716.096 122.86C713.969 125.353 710.853 127.517 706.746 129.35C702.639 131.183 697.799 132.1 692.226 132.1ZM701.466 96.57V96.35C701.466 92.7567 700.623 89.9333 698.936 87.88C697.323 85.7533 695.049 84.69 692.116 84.69C689.256 84.69 686.983 85.7533 685.296 87.88C683.683 89.9333 682.876 92.7567 682.876 96.35V96.57H701.466ZM748.298 132.1C744.412 132.1 740.855 131.367 737.628 129.9C734.475 128.36 731.982 126.307 730.148 123.74C728.388 121.1 727.508 118.203 727.508 115.05C727.508 109.99 729.562 105.92 733.668 102.84C737.848 99.76 743.568 97.6333 750.828 96.46L764.578 94.37V92.83C764.578 90.0433 763.992 87.99 762.818 86.67C761.645 85.35 759.665 84.69 756.878 84.69C755.192 84.69 753.798 84.9833 752.698 85.57C751.598 86.1567 750.462 86.9633 749.288 87.99C748.262 88.87 747.492 89.4567 746.978 89.75C746.758 90.3367 746.355 90.63 745.768 90.63H733.778C733.045 90.63 732.422 90.41 731.908 89.97C731.468 89.4567 731.285 88.87 731.358 88.21C731.432 86.23 732.385 84.03 734.218 81.61C736.125 79.19 738.985 77.1 742.798 75.34C746.685 73.58 751.452 72.7 757.098 72.7C766.118 72.7 772.792 74.7167 777.118 78.75C781.445 82.71 783.608 88.0633 783.608 94.81V128.25C783.608 128.983 783.352 129.643 782.838 130.23C782.325 130.743 781.665 131 780.858 131H768.098C767.365 131 766.705 130.743 766.118 130.23C765.605 129.643 765.348 128.983 765.348 128.25V124.4C763.735 126.673 761.462 128.543 758.528 130.01C755.668 131.403 752.258 132.1 748.298 132.1ZM753.468 119.56C756.842 119.56 759.555 118.46 761.608 116.26C763.735 114.06 764.798 110.833 764.798 106.58V105.04L755.448 106.69C748.848 107.863 745.548 110.173 745.548 113.62C745.548 115.453 746.318 116.92 747.858 118.02C749.398 119.047 751.268 119.56 753.468 119.56ZM824.071 155.2C817.105 155.2 811.458 154.063 807.131 151.79C802.805 149.517 799.688 146.913 797.781 143.98C795.948 141.047 795.031 138.59 795.031 136.61C795.031 135.95 795.325 135.363 795.911 134.85C796.498 134.337 797.158 134.08 797.891 134.08H811.861C812.595 134.08 813.145 134.227 813.511 134.52C813.951 134.887 814.355 135.473 814.721 136.28C815.455 137.967 816.445 139.287 817.691 140.24C818.938 141.267 820.881 141.78 823.521 141.78C826.895 141.78 829.388 140.937 831.001 139.25C832.615 137.637 833.421 134.887 833.421 131V123.63C829.681 127.737 824.328 129.79 817.361 129.79C809.955 129.79 804.271 127.627 800.311 123.3C796.425 118.9 794.298 112.557 793.931 104.27L793.821 101.3C793.821 92.4267 795.801 85.46 799.761 80.4C803.721 75.2667 809.588 72.7 817.361 72.7C821.101 72.7 824.401 73.4333 827.261 74.9C830.121 76.2933 832.541 78.2 834.521 80.62V76.55C834.521 75.7433 834.778 75.0833 835.291 74.57C835.878 74.0567 836.538 73.8 837.271 73.8H849.921C850.728 73.8 851.388 74.0933 851.901 74.68C852.488 75.1933 852.781 75.8167 852.781 76.55V129.46C852.781 137.82 850.288 144.2 845.301 148.6C840.315 153 833.238 155.2 824.071 155.2ZM823.301 115.49C826.601 115.49 829.058 114.5 830.671 112.52C832.285 110.467 833.201 107.9 833.421 104.82C833.495 104.307 833.531 103.17 833.531 101.41C833.531 99.7233 833.495 98.6233 833.421 98.11C833.275 95.03 832.358 92.5 830.671 90.52C829.058 88.4667 826.601 87.44 823.301 87.44C819.855 87.44 817.361 88.4667 815.821 90.52C814.281 92.5733 813.438 95.3967 813.291 98.99L813.181 101.41C813.181 105.737 813.915 109.183 815.381 111.75C816.848 114.243 819.488 115.49 823.301 115.49ZM886.748 132.1C880.295 132.1 875.088 129.937 871.128 125.61C867.168 121.21 865.188 115.087 865.188 107.24V76.55C865.188 75.7433 865.445 75.0833 865.958 74.57C866.471 74.0567 867.131 73.8 867.938 73.8H881.688C882.495 73.8 883.155 74.0567 883.668 74.57C884.255 75.0833 884.548 75.7433 884.548 76.55V106.58C884.548 113.767 887.738 117.36 894.118 117.36C897.198 117.36 899.618 116.407 901.378 114.5C903.138 112.593 904.018 109.953 904.018 106.58V76.55C904.018 75.7433 904.275 75.0833 904.788 74.57C905.375 74.0567 906.035 73.8 906.768 73.8H920.518C921.325 73.8 921.985 74.0567 922.498 74.57C923.011 75.0833 923.268 75.7433 923.268 76.55V128.25C923.268 128.983 923.011 129.643 922.498 130.23C921.985 130.743 921.325 131 920.518 131H907.758C907.025 131 906.365 130.743 905.778 130.23C905.265 129.643 905.008 128.983 905.008 128.25V124.07C901.195 129.423 895.108 132.1 886.748 132.1ZM962.607 132.1C953.807 132.1 946.877 129.717 941.817 124.95C936.757 120.183 934.117 113.253 933.897 104.16V100.31C934.19 91.6567 936.867 84.91 941.927 80.07C947.06 75.1567 953.917 72.7 962.497 72.7C968.73 72.7 973.973 73.9833 978.227 76.55C982.553 79.0433 985.78 82.49 987.907 86.89C990.107 91.29 991.207 96.35 991.207 102.07V104.71C991.207 105.443 990.95 106.103 990.437 106.69C989.923 107.203 989.263 107.46 988.457 107.46H953.257V108.23C953.403 111.677 954.247 114.463 955.787 116.59C957.327 118.717 959.563 119.78 962.497 119.78C964.33 119.78 965.833 119.413 967.007 118.68C968.18 117.873 969.243 116.92 970.197 115.82C970.857 115.013 971.37 114.537 971.737 114.39C972.177 114.17 972.837 114.06 973.717 114.06H987.357C988.017 114.06 988.567 114.28 989.007 114.72C989.52 115.087 989.777 115.6 989.777 116.26C989.777 118.167 988.677 120.367 986.477 122.86C984.35 125.353 981.233 127.517 977.127 129.35C973.02 131.183 968.18 132.1 962.607 132.1ZM971.847 96.57V96.35C971.847 92.7567 971.003 89.9333 969.317 87.88C967.703 85.7533 965.43 84.69 962.497 84.69C959.637 84.69 957.363 85.7533 955.677 87.88C954.063 89.9333 953.257 92.7567 953.257 96.35V96.57H971.847Z" fill="#2588B2"/>
<path d="M49.0909 27L61.8182 47.6818V146.318L48.2955 167H144.272L163.636 141.545H93.6364V27H49.0909ZM106.364 27.3232V40.1001C134.955 43.2756 157.273 67.5682 157.273 97C157.273 108.766 153.7 119.712 147.591 128.818H162.269C167.176 119.26 170 108.461 170 97C170 60.5491 141.987 30.5495 106.364 27.3232ZM48.283 49.9812C36.9621 62.4221 30 78.8955 30 97C30 115.054 36.9263 131.479 48.1836 143.907L49.0909 142.527V123.126C45.05 115.279 42.7273 106.412 42.7273 97C42.7273 87.5882 45.05 78.7207 49.0909 70.8743V51.2862L48.283 49.9812Z" fill="#2588B2"/>
<circle cx="100" cy="100" r="95" stroke="#2588B2" stroke-width="10"/>
</svg>
