<svg width="201" height="200" viewBox="0 0 201 200" fill="none" xmlns="http://www.w3.org/2000/svg">
<path d="M196 103.5C196 155.139 153.467 197 101 197C48.533 197 6 155.139 6 103.5C6 51.8614 48.533 10 101 10C153.467 10 196 51.8614 196 103.5Z" fill="white"/>
<path d="M62.7508 30.8232V51.1819V149.818L56.9326 170.5H145.205L155.933 145.046H94.569V22L62.7508 30.8232ZM107.296 30.8232V43.6002C135.888 46.7757 158.205 71.0683 158.205 100.5C158.205 112.266 154.632 123.212 148.523 132.318H163.202C168.108 122.76 170.933 111.961 170.933 100.5C170.933 64.0492 142.92 34.0496 107.296 30.8232ZM49.2156 53.4813C37.8947 65.9222 30.9326 82.3955 30.9326 100.5C30.9326 118.554 37.8589 134.979 49.1162 147.407L50.0235 146.027V126.626C45.9826 118.779 43.6599 109.912 43.6599 100.5C43.6599 91.0883 45.9826 82.2207 50.0235 74.3744V54.7863L49.2156 53.4813Z" fill="#2588B2"/>
<circle cx="100.933" cy="100" r="95" stroke="#2588B2" stroke-width="10"/>
</svg>
